HIERARCHY
ROOT Hips
{
 OFFSET 0.000000 0.000000 0.000000
 CHANNELS 6 Xposition Yposition Zposition Yrotation Xrotation Zrotation
 JOINT Chest
 {
  OFFSET 0.000000 9.585900 0.002600
  CHANNELS 3 Yrotation Xrotation Zrotation
  JOINT Chest2
  {
   OFFSET 0.000000 9.601200 -0.005300
   CHANNELS 3 Yrotation Xrotation Zrotation
   JOINT Chest3
   {
    OFFSET 0.000000 9.561800 0.000000
    CHANNELS 3 Yrotation Xrotation Zrotation
    JOINT Chest4
    {
     OFFSET 0.000000 9.552100 0.000000
     CHANNELS 3 Yrotation Xrotation Zrotation
     JOINT Neck
     {
      OFFSET 0.000000 14.453000 0.000000
      CHANNELS 3 Yrotation Xrotation Zrotation
      JOINT Head
      {
       OFFSET 0.000000 8.936500 -0.011300
       CHANNELS 3 Yrotation Xrotation Zrotation
       End Site
       {
        OFFSET 0.000000 17.073600 -0.006000
       }
      }
     }
     JOINT RightCollar
     {
      OFFSET -2.921100 9.558500 0.000000
      CHANNELS 3 Yrotation Xrotation Zrotation
      JOINT RightShoulder
      {
       OFFSET -13.519700 0.000000 0.000000
       CHANNELS 3 Yrotation Xrotation Zrotation
       JOINT RightElbow
       {
        OFFSET 0.000000 -29.696600 0.000000
        CHANNELS 3 Yrotation Xrotation Zrotation
        JOINT RightWrist
        {
         OFFSET 0.000000 -24.004700 0.000000
         CHANNELS 3 Yrotation Xrotation Zrotation
         End Site
         {
          OFFSET 0.000000 -17.728500 0.000000
         }
        }
       }
      }
     }
     JOINT LeftCollar
     {
      OFFSET 2.921100 9.558500 0.000000
      CHANNELS 3 Yrotation Xrotation Zrotation
      JOINT LeftShoulder
      {
       OFFSET 13.519700 0.000000 0.000000
       CHANNELS 3 Yrotation Xrotation Zrotation
       JOINT LeftElbow
       {
        OFFSET 0.000000 -29.696600 0.000000
        CHANNELS 3 Yrotation Xrotation Zrotation
        JOINT LeftWrist
        {
         OFFSET 0.000000 -24.004700 0.000000
         CHANNELS 3 Yrotation Xrotation Zrotation
         End Site
         {
          OFFSET 0.000000 -17.728500 0.000000
         }
        }
       }
      }
     }
    }
   }
  }
 }
 JOINT RightHip
 {
  OFFSET -7.771700 -0.012900 -0.001300
  CHANNELS 3 Yrotation Xrotation Zrotation
  JOINT RightKnee
  {
   OFFSET 0.000000 -40.869800 0.001200
   CHANNELS 3 Yrotation Xrotation Zrotation
   JOINT RightAnkle
   {
    OFFSET 0.000000 -39.717900 0.002100
    CHANNELS 3 Yrotation Xrotation Zrotation
    JOINT RightToe
    {
     OFFSET 0.000000 -4.965400 11.033500
     CHANNELS 3 Yrotation Xrotation Zrotation
     End Site
     {
      OFFSET 0.000000 -1.423100 5.872300
     }
    }
   }
  }
 }
 JOINT LeftHip
 {
  OFFSET 7.771700 -0.012900 -0.001300
  CHANNELS 3 Yrotation Xrotation Zrotation
  JOINT LeftKnee
  {
   OFFSET 0.000000 -40.869800 0.001200
   CHANNELS 3 Yrotation Xrotation Zrotation
   JOINT LeftAnkle
   {
    OFFSET 0.000000 -39.717900 0.002100
    CHANNELS 3 Yrotation Xrotation Zrotation
    JOINT LeftToe
    {
     OFFSET 0.000000 -4.965400 11.033500
     CHANNELS 3 Yrotation Xrotation Zrotation
     End Site
     {
      OFFSET 0.000000 -1.423100 5.872300
     }
    }
   }
  }
 }
}
MOTION
Frames: 12
Frame Time: 0.008333
0.000000 85.388000 0.000000 0.000000 -5.767877 0.000000 0.000000 11.653817 0.000000 0.000000 -5.885947 0.000000 0.000000 -0.000000 0.000000 0.000000 -0.000000 0.000000 0.000000 12.528835 0.000000 0.000000 0.711642 0.000000 0.000000 -0.000000 0.000000 0.000000 0.000000 -90.000000 0.000000 -2.309062 0.000000 0.000000 2.309062 0.000000 0.000000 -0.000000 0.000000 0.000000 -0.000000 90.000000 0.000000 -2.309062 0.000000 0.000000 2.309062 0.000000 0.000000 8.520406 0.000000 0.000000 1.905762 0.000000 -0.000000 -4.658285 0.000000 0.000000 -0.000000 0.000000 0.000000 8.520406 0.000000 0.000000 1.905762 0.000000 -0.000000 -4.658285 0.000000 0.000000 -0.000000 0.000000
-40.559149 57.622120 19.394052 164.320458 -1.997075 -0.229940 1.591673 7.005107 3.114319 0.047248 0.334420 0.121538 0.083126 0.584926 0.212783 1.109970 6.802325 2.546590 -4.817232 13.523711 3.632039 -10.513065 -10.160742 8.739158 9.626930 2.668569 -2.271370 -15.280156 -44.698649 -33.305992 -60.440094 -50.423238 42.413148 -13.780226 -8.157550 -32.205286 -11.400275 0.707405 -1.706795 20.944460 -40.833709 23.374293 58.566546 -22.969910 -44.679840 11.885148 -9.890019 6.050594 -2.656019 -69.666797 -2.170682 -41.136940 72.242442 -43.822719 -3.991347 -5.229994 4.022012 -1.002465 0.812946 -0.338453 -8.679912 -72.136783 17.564721 45.103157 63.524325 40.295481 -17.416923 -11.160143 2.974044 0.542953 -0.695951 0.282640
-40.551175 57.616837 19.402862 164.263610 -2.004601 -0.221295 1.585430 6.966714 3.184801 0.046064 0.332198 0.123875 0.081002 0.581086 0.216941 1.089577 6.771233 2.599030 -4.749365 13.550826 3.694997 -10.406318 -10.110972 8.828143 9.524202 2.590128 -2.291935 -15.582145 -44.542445 -33.212184 -60.507220 -50.623131 42.494580 -13.761521 -8.137758 -32.233277 -11.312407 0.667514 -1.675123 21.170294 -40.724133 23.425116 58.541355 -22.997443 -44.651457 11.896213 -9.892855 6.047395 -2.508517 -69.667980 -2.198222 -41.194179 72.219073 -43.922905 -4.033057 -5.242146 4.069620 -1.015712 0.785165 -0.377403 -8.508348 -72.136127 17.520926 45.074405 63.539569 40.231512 -17.422480 -11.151163 2.979532 0.514534 -0.690889 0.300178
-40.540828 57.611240 19.411408 164.227218 -2.025965 -0.211287 1.560048 6.937628 3.252865 0.044818 0.329983 0.126075 0.078801 0.577252 0.220740 1.067604 6.740690 2.647533 -4.673065 13.577266 3.745526 -10.279080 -10.065125 8.890667 9.423906 2.501519 -2.312023 -15.849618 -44.357230 -33.141227 -60.569413 -50.791451 42.579782 -13.749526 -8.126457 -32.266681 -11.222576 0.635124 -1.640910 21.376850 -40.611501 23.490346 58.491596 -23.028066 -44.605358 11.903826 -9.884315 6.032819 -2.374899 -69.654887 -2.230443 -41.260940 72.200936 -44.029237 -4.088365 -5.280906 4.100794 -1.009643 0.800302 -0.380905 -8.353521 -72.121527 17.471445 44.999881 63.568288 40.143512 -17.445702 -11.148593 2.962916 0.517521 -0.680283 0.326876
-40.523362 57.605682 19.422873 164.203207 -2.048849 -0.233297 1.556694 6.933370 3.314622 0.015084 0.296625 0.169931 0.076543 0.573650 0.224317 1.044321 6.711713 2.693005 -4.588951 13.603465 3.783600 -10.132489 -10.022222 8.926904 9.321781 2.402243 -2.333614 -16.086251 -44.144708 -33.089126 -60.611531 -50.927750 42.667859 -13.740556 -8.127716 -32.314129 -11.124322 0.606721 -1.604835 21.559505 -40.488706 23.569605 58.419131 -23.060829 -44.551600 11.906645 -9.871835 6.018164 -2.346803 -69.639372 -2.166725 -41.380494 72.176517 -44.165461 -4.147644 -5.331746 4.104176 -0.973585 0.804887 -0.379527 -8.271000 -72.097514 17.547573 44.893744 63.612949 39.974616 -17.529331 -11.159705 2.978116 0.561820 -0.640624 0.355305
-40.513346 57.600468 19.432040 164.183209 -2.077512 -0.196586 1.496605 6.887338 3.373508 0.027861 0.308902 0.150965 0.074184 0.570055 0.227555 1.020052 6.683415 2.734828 -4.498109 13.630450 3.810739 -9.968945 -9.979897 8.939858 9.214442 2.298495 -2.359211 -16.302520 -43.904439 -33.041225 -60.615180 -51.047170 42.752935 -13.737412 -8.142926 -32.389939 -11.020220 0.584425 -1.566641 21.716416 -40.353195 23.663716 58.328399 -23.094879 -44.494502 11.907290 -9.859330 6.007770 -2.178669 -69.620247 -2.257856 -41.440671 72.169625 -44.275523 -4.198031 -5.414968 4.142549 -0.968846 0.843416 -0.383114 -8.060385 -72.069463 17.450238 44.830916 63.641269 39.839413 -17.567638 -11.156365 3.002470 0.544650 -0.621472 0.359990
-40.508176 57.595776 19.441270 164.159793 -2.100600 -0.121880 1.437378 6.830082 3.392316 0.040776 0.323604 0.131497 0.071820 0.566266 0.230254 0.995678 6.654986 2.771435 -4.401328 13.659223 3.828906 -9.790590 -9.936010 8.933516 9.101276 2.194535 -2.387920 -16.502784 -43.635237 -32.988145 -60.571577 -51.168255 42.828591 -13.740289 -8.172162 -32.511762 -10.919554 0.569477 -1.524925 21.851231 -40.205821 23.772152 58.224081 -23.132233 -44.439262 11.908893 -9.845030 5.999739 -1.927788 -69.604782 -2.442013 -41.512950 72.158280 -44.389326 -4.260916 -5.559946 4.164524 -0.938502 0.933285 -0.377753 -7.775700 -72.053012 17.223077 44.834085 63.643681 39.783112 -17.495990 -11.136144 2.990758 0.425196 -0.628618 0.364824
-40.489952 57.591861 19.452057 164.114905 -2.137148 -0.116316 1.426996 6.799827 3.460102 0.039471 0.321371 0.132774 0.069590 0.562443 0.232509 0.972410 6.626854 2.803208 -4.299235 13.689785 3.839100 -9.598987 -9.890391 8.910125 8.982254 2.093630 -2.417440 -16.686390 -43.341151 -32.931314 -60.478719 -51.296343 42.891257 -13.744286 -8.213524 -32.680696 -10.824851 0.559266 -1.477417 21.968175 -40.044195 23.891716 58.110445 -23.173086 -44.392809 11.912758 -9.828886 5.991801 -1.861466 -69.572009 -2.436777 -41.569511 72.149020 -44.457756 -4.266853 -5.683464 4.177740 -0.936678 0.987814 -0.391802 -7.638879 -72.011844 17.232689 44.702783 63.693894 39.614688 -17.534738 -11.153440 2.974639 0.495094 -0.594410 0.365999
-40.475606 57.588607 19.461374 164.106821 -2.175709 -0.082320 1.380048 6.772934 3.495341 0.038161 0.319218 0.133822 0.067361 0.558681 0.234428 0.948666 6.599570 2.831251 -4.191870 13.721857 3.841776 -9.394517 -9.843337 8.870439 8.862701 2.005083 -2.446018 -16.860027 -43.029098 -32.872240 -60.337256 -51.434626 42.943933 -13.747343 -8.257398 -32.886796 -10.730847 0.551510 -1.421775 22.064663 -39.862994 24.017934 57.991788 -23.221508 -44.353099 11.919855 -9.811067 5.978674 -1.757821 -69.540386 -2.510726 -41.619756 72.158172 -44.535128 -4.281353 -5.820207 4.217305 -0.945041 1.038680 -0.415057 -7.445746 -71.972690 17.153617 44.626161 63.730394 39.451837 -17.558294 -11.146851 3.012262 0.500307 -0.584695 0.358001
-40.458625 57.585956 19.470713 164.100721 -2.217975 -0.061013 1.335944 6.747256 3.542330 0.036760 0.317092 0.134705 0.064894 0.554912 0.235997 0.922109 6.573101 2.855835 -4.079460 13.756201 3.836531 -9.177460 -9.793408 8.813702 8.750255 1.947872 -2.472357 -17.026891 -42.707807 -32.812592 -60.150382 -51.591093 42.985167 -13.746406 -8.287968 -33.115806 -10.634903 0.547839 -1.360722 22.138362 -39.658610 24.146150 57.869279 -23.287709 -44.316209 11.931830 -9.790166 5.956797 -1.715820 -69.506184 -2.505639 -41.701860 72.156762 -44.655916 -4.333178 -5.950521 4.251082 -0.920948 1.101347 -0.425423 -7.305440 -71.927525 17.107580 44.557331 63.760543 39.312768 -17.548436 -11.149354 3.040382 0.475793 -0.572075 0.356849
-40.439535 57.583791 19.479322 164.113114 -2.267560 -0.050819 1.299134 6.761755 3.566386 0.036045 0.316008 0.135108 0.043472 0.511208 0.273740 0.894220 6.547592 2.877236 -3.963981 13.793695 3.823286 -8.951317 -9.738713 8.740554 8.637430 1.935734 -2.497580 -17.168752 -42.381759 -32.758703 -59.912725 -51.772540 42.988206 -13.736481 -8.291773 -33.335112 -10.539053 0.549192 -1.297146 22.193756 -39.428800 24.271587 57.739977 -23.376250 -44.284084 11.949574 -9.766911 5.927426 -1.833853 -69.479835 -2.353638 -41.831308 72.155049 -44.863504 -4.396894 -6.031477 4.267061 -0.867397 1.083747 -0.409566 -7.208484 -71.874540 17.088590 44.481021 63.794995 39.163724 -17.537101 -11.154288 3.097401 0.436854 -0.560335 0.321184
-40.428971 57.581861 19.485499 164.121502 -2.317568 0.011968 1.230970 6.718729 3.587545 0.060013 0.374462 0.082059 0.035566 0.487313 0.292471 0.858282 6.502244 2.913678 -3.846955 13.833696 3.802816 -8.719326 -9.680084 8.653101 8.515519 1.960844 -2.523189 -17.263419 -42.044225 -32.719840 -59.608816 -51.986115 42.917419 -13.710766 -8.260440 -33.512777 -10.441943 0.549607 -1.231544 22.235310 -39.168684 24.391524 57.596214 -23.489000 -44.258341 11.971701 -9.748592 5.894427 -1.766768 -69.449701 -2.430315 -41.888906 72.175420 -44.970247 -4.414694 -6.147695 4.291396 -0.858273 1.069387 -0.407631 -6.946459 -71.827741 16.899676 44.419497 63.827424 39.011375 -17.527392 -11.132650 3.175451 0.395245 -0.575459 0.272543
